<svg width="158" height="157" viewBox="0 0 158 157" fill="none" xmlns="http://www.w3.org/2000/svg">
<g clip-path="url(#clip0_11_146)">
<path d="M129.165 33.9026C129.165 33.9026 139.215 97.3304 78.9097 120.205C18.6047 97.3304 28.6543 33.9026 28.6543 33.9026" fill="#74C194"/>
<path d="M78.9082 120.206C18.6032 97.3316 28.654 33.9041 28.654 33.9041H48.9186C48.9186 33.9041 42.9232 97.3316 78.9082 120.206Z" fill="#43AC75"/>
<path d="M60.9488 151.048C60.9488 151.048 57.3571 128.38 78.9097 120.205C100.462 128.38 96.8706 151.048 96.8706 151.048C85.3121 155.509 72.5073 155.509 60.9488 151.048Z" fill="#74C194"/>
<path d="M78.9082 120.206C70.1327 128.098 70.0634 147.891 70.2403 153.634C67.0865 153.079 63.9707 152.216 60.9451 151.048C60.9451 151.048 57.3544 128.378 78.9082 120.206Z" fill="#43AC75"/>
<path d="M32.8488 25.3896C30.151 27.9963 28.6543 30.8757 28.6543 33.9026C28.6543 45.6396 51.1541 55.1543 78.9085 55.1543C106.663 55.1543 129.163 45.6396 129.163 33.9026C129.163 30.9683 127.757 28.173 125.213 25.6303" fill="#4D4D4D"/>
<path d="M56.9855 7.67341V17.0345C56.9855 24.5 50.9342 30.5513 43.4687 30.5513C36.0069 30.5513 29.9556 24.5 29.9556 17.0345V7.67341C29.9556 3.67389 34.2949 1.37254 37.5456 3.28568C37.7986 3.43471 38.0448 3.60796 38.2837 3.80911L43.4687 8.19684L48.6571 3.80911C51.9464 1.02604 56.9855 3.36203 56.9855 7.67341Z" fill="#EC589B"/>
<path d="M43.469 30.5513C36.0072 30.5513 29.9559 24.5 29.9559 17.0345V7.67341C29.9559 3.67389 34.2952 1.37254 37.5459 3.28568C36.9707 11.167 37.1335 24.2158 43.469 30.5513Z" fill="#D3468D"/>
<path d="M80.6097 7.67341V17.0345C80.6097 24.5 74.5585 30.5513 67.093 30.5513C59.6312 30.5513 53.5799 24.5 53.5799 17.0345V7.67341C53.5799 3.67389 57.9192 1.37254 61.1699 3.28568C61.4229 3.43471 61.6691 3.60796 61.908 3.80911L67.093 8.19684L72.2813 3.80911C75.5704 1.02604 80.6097 3.36203 80.6097 7.67341Z" fill="#EC589B"/>
<path d="M67.093 30.5513C59.6312 30.5513 53.5799 24.5 53.5799 17.0345V7.67341C53.5799 3.67389 57.9192 1.37254 61.1699 3.28568C60.5946 11.167 60.7575 24.2158 67.093 30.5513Z" fill="#D3468D"/>
<path d="M104.236 7.67341V17.0345C104.236 24.5 98.1846 30.5513 90.7191 30.5513C83.2573 30.5513 77.206 24.5 77.206 17.0345V7.67341C77.206 3.67389 81.5453 1.37254 84.796 3.28568C85.049 3.43471 85.2952 3.60796 85.5341 3.80911L90.7191 8.19684L95.9074 3.80911C99.1968 1.02604 104.236 3.36203 104.236 7.67341Z" fill="#EC589B"/>
<path d="M90.7194 30.5513C83.2576 30.5513 77.2063 24.5 77.2063 17.0345V7.67341C77.2063 3.67389 81.5456 1.37254 84.7963 3.28568C84.221 11.167 84.3838 24.2158 90.7194 30.5513Z" fill="#D3468D"/>
<path d="M127.861 7.67341V17.0345C127.861 24.5 121.81 30.5513 114.345 30.5513C106.883 30.5513 100.831 24.5 100.831 17.0345V7.67341C100.831 3.67389 105.171 1.37254 108.421 3.28568C108.674 3.43471 108.921 3.60796 109.16 3.80911L114.345 8.19684L119.533 3.80911C122.822 1.02604 127.861 3.36203 127.861 7.67341Z" fill="#EC589B"/>
<path d="M114.345 30.5513C106.883 30.5513 100.831 24.5 100.831 17.0345V7.67341C100.831 3.67389 105.171 1.37254 108.421 3.28568C107.846 11.167 108.009 24.2158 114.345 30.5513Z" fill="#D3468D"/>
<path d="M68.7991 20.8449V30.206C68.7991 37.6715 62.7479 43.7227 55.2824 43.7227C47.8206 43.7227 41.7693 37.6715 41.7693 30.206V20.8449C41.7693 16.8453 46.1086 14.544 49.3593 16.4571C49.6123 16.6062 49.8585 16.7794 50.0974 16.9806L55.2824 21.3683L60.4707 16.9806C63.7595 14.1975 68.7991 16.5335 68.7991 20.8449Z" fill="#EC589B"/>
<path d="M55.2824 43.7227C47.8206 43.7227 41.7693 37.6715 41.7693 30.206V20.8449C41.7693 16.8453 46.1086 14.544 49.3593 16.4571C48.784 24.3384 48.9469 37.3872 55.2824 43.7227Z" fill="#D3468D"/>
<path d="M92.4228 20.8449V30.206C92.4228 37.6715 86.3715 43.7227 78.906 43.7227C71.4442 43.7227 65.3929 37.6715 65.3929 30.206V20.8449C65.3929 16.8453 69.7322 14.544 72.9829 16.4571C73.2359 16.6062 73.4821 16.7794 73.721 16.9806L78.906 21.3683L84.0944 16.9806C87.3834 14.1975 92.4228 16.5335 92.4228 20.8449Z" fill="#EC589B"/>
<path d="M78.906 43.7227C71.4442 43.7227 65.3929 37.6715 65.3929 30.206V20.8449C65.3929 16.8453 69.7322 14.544 72.9829 16.4571C72.4077 24.3384 72.5705 37.3872 78.906 43.7227Z" fill="#D3468D"/>
<path d="M116.049 20.8449V30.206C116.049 37.6715 109.998 43.7227 102.532 43.7227C95.0706 43.7227 89.0194 37.6715 89.0194 30.206V20.8449C89.0194 16.8453 93.3586 14.544 96.6093 16.4571C96.8623 16.6062 97.1086 16.7794 97.3474 16.9806L102.532 21.3683L107.72 16.9806C111.01 14.1975 116.049 16.5335 116.049 20.8449Z" fill="#EC589B"/>
<path d="M102.532 43.7227C95.0706 43.7227 89.0194 37.6715 89.0194 30.206V20.8449C89.0194 16.8453 93.3586 14.544 96.6093 16.4571C96.0341 24.3384 96.1969 37.3872 102.532 43.7227Z" fill="#D3468D"/>
<path d="M128.273 25.1256C129.665 22.7353 130.461 19.9664 130.461 17.0346V7.67343C130.461 4.65639 128.76 1.99352 126.022 0.723715C123.284 -0.546086 120.153 -0.124148 117.85 1.82486L114.345 4.79162L110.84 1.82517C108.458 -0.191303 105.214 -0.531981 102.532 0.785043C99.8496 -0.530141 96.6066 -0.189463 94.2289 1.82394L90.7194 4.79162L87.2138 1.82486C84.8346 -0.189463 81.5916 -0.530448 78.9088 0.785043C76.2266 -0.532288 72.9829 -0.191609 70.6016 1.82456L67.0951 4.79162L63.5874 1.82486C61.2104 -0.18793 57.9679 -0.529528 55.2848 0.784123C52.6005 -0.530448 49.3568 -0.189156 46.9798 1.82394L43.4702 4.79162L39.9638 1.82456C37.6612 -0.123535 34.5317 -0.546086 31.7952 0.723102C29.0575 1.9926 27.3572 4.65578 27.3572 7.67312V17.0343C27.3572 19.9667 28.1526 22.7356 29.5438 25.1262C25.2423 29.4278 23.7621 50.9181 28.6576 69.1495C31.6722 80.3765 36.7027 90.3258 43.6095 98.7207C51.1084 107.836 60.8301 115.104 72.5576 120.383C69.6163 122.137 67.0868 124.289 65.0038 126.821C64.0916 127.93 64.251 129.568 65.3598 130.48C66.4683 131.392 68.1061 131.233 69.0187 130.124C71.2516 127.409 74.1448 125.215 77.631 123.573C78.8665 126.334 80.9513 131.487 82.352 137.589C82.6283 138.792 83.6988 139.607 84.8831 139.607C85.0756 139.607 85.2716 139.585 85.4675 139.54C86.8667 139.219 87.7403 137.824 87.419 136.425C86.4911 132.385 85.301 128.768 84.2109 125.888C88.7694 129.086 91.8576 133.536 93.4147 139.19C94.5659 143.368 94.5607 147.173 94.4408 149.171C92.6561 149.792 90.8451 150.301 89.0172 150.701C89.0423 149.51 89.0243 148.294 88.9596 147.062C88.8841 145.628 87.6487 144.526 86.2277 144.602C84.7938 144.677 83.6927 145.9 83.7672 147.334C83.8426 148.775 83.8432 150.182 83.7816 151.547C76.9355 152.258 69.9779 151.467 63.3802 149.171C63.2409 146.834 63.2593 142.032 65.094 137.04C65.5892 135.693 64.8986 134.199 63.5507 133.704C62.2036 133.209 60.7096 133.899 60.2141 135.247C58.6245 139.573 58.2074 143.714 58.1378 146.427C58.1059 147.661 58.1351 148.866 58.2246 150.008C58.3427 151.515 58.4166 151.959 58.8179 152.534C59.1139 152.959 59.5309 153.285 60.0135 153.472C66.1071 155.823 72.5073 156.999 78.9097 156.999C85.3111 156.999 91.7141 155.823 97.8062 153.472C98.6709 153.138 99.2927 152.369 99.4375 151.454C99.4777 151.2 100.4 145.158 98.4823 138.017C96.9831 132.432 93.4595 125.28 85.2612 120.385C116.677 106.263 127.456 80.7638 130.894 61.3415C131.144 59.9279 130.201 58.5792 128.787 58.329C127.374 58.0794 126.025 59.022 125.775 60.4357C122.439 79.2821 111.708 104.248 79.6824 117.109C68.3281 103.429 65.2059 87.5087 64.6141 76.3972C64.5374 74.9634 63.3029 73.8616 61.8804 73.9395C60.4465 74.0159 59.3463 75.24 59.4226 76.6732C59.9633 86.828 62.4961 100.747 70.8343 113.785C61.5952 109.06 53.8329 102.941 47.6958 95.5068C41.2637 87.7154 36.5641 78.4554 33.7264 67.9839C31.2113 58.701 30.6183 50.0736 30.6367 43.8752C33.3879 46.6727 37.3322 49.1976 42.3602 51.3238C47.6421 53.5574 53.8507 55.2445 60.6014 56.3316C60.1699 58.7522 59.6174 62.6174 59.3935 67.4611C59.3273 68.8953 60.4361 70.1114 61.8703 70.1776C61.911 70.1798 61.9518 70.1804 61.9926 70.1804C63.3728 70.1804 64.523 69.0943 64.5871 67.7009C64.8045 62.9967 65.3586 59.2529 65.7606 57.0332C70.0051 57.5057 74.4134 57.7538 78.9082 57.7538C92.6714 57.7538 105.651 55.4702 115.455 51.3241C120.49 49.1954 124.438 46.6669 127.189 43.8651C127.199 46.4031 127.105 49.3438 126.817 52.5672C126.69 53.9971 127.746 55.2599 129.175 55.3877C129.254 55.3948 129.332 55.3982 129.41 55.3982C130.741 55.3982 131.875 54.3813 131.996 53.03C132.943 42.4389 132.457 30.5893 128.273 25.1256ZM112.665 10.1808C113.635 11.0011 115.054 11.0011 116.023 10.1808L121.208 5.79311C122.322 4.8508 123.5 5.2847 123.835 5.43986C124.17 5.59502 125.262 6.21505 125.262 7.67312V17.0343C125.262 21.4858 122.566 25.389 118.648 27.0722V20.8434C118.648 18.5972 117.728 16.5559 116.058 15.0951C113.42 12.7888 109.682 12.5601 106.834 14.414V7.67343C106.834 6.83569 106.706 6.02677 106.459 5.26568C106.806 5.34909 107.153 5.5159 107.481 5.79311L112.665 10.1808ZM64.1078 51.5979C64.0778 51.593 64.0477 51.5894 64.0177 51.5854C61.9181 51.3042 59.8673 50.9672 57.8827 50.5682V46.1078C61.4965 45.5191 64.7098 43.7246 67.0957 41.1516C69.5246 43.77 72.7655 45.52 76.3097 46.1005V52.5255C72.1142 52.4338 68.023 52.1186 64.1078 51.5979ZM56.9628 23.352L62.149 18.964C63.2621 18.0223 64.4399 18.4549 64.7745 18.6101C65.109 18.7653 66.2003 19.3847 66.2003 20.8431V30.2048C66.2003 36.2242 61.3033 41.1215 55.2836 41.1215C49.2639 41.1215 44.3669 36.2245 44.3669 30.2048V20.8431C44.3669 19.3847 45.4582 18.765 45.7927 18.6101C45.966 18.5298 46.3646 18.3752 46.8642 18.3752C47.3296 18.3752 47.8816 18.5098 48.4185 18.964L53.6044 23.352C54.5737 24.172 55.9935 24.1726 56.9628 23.352ZM80.5889 23.3511L85.7745 18.963C86.8873 18.0213 88.2307 18.3255 89.0135 19.0115C89.3843 19.3353 89.8273 19.9158 89.8273 20.8434V30.2045C89.8273 32.0667 89.3521 33.9002 88.4505 35.5109C86.5233 38.972 82.8678 41.1219 78.9103 41.1219C75.3891 41.1219 72.1099 39.4166 70.0714 36.6035C70.9238 34.6407 71.3994 32.4779 71.3994 30.2048V20.8431C71.3994 20.005 71.2639 19.1961 71.0158 18.435C71.3651 18.5178 71.7147 18.6852 72.0437 18.964L77.2321 23.3517C78.2001 24.1713 79.6205 24.1707 80.5889 23.3511ZM81.5091 46.1005C85.0533 45.52 88.2938 43.7706 90.7215 41.1541C93.1501 43.7712 96.3901 45.52 99.9333 46.1005V50.5686C94.2227 51.7154 87.9878 52.3839 81.5091 52.5252V46.1005ZM102.532 41.1219C99.0109 41.1219 95.7317 39.4166 93.6935 36.6035C94.5634 34.5953 95.0255 32.4136 95.0255 30.2045V20.8434C95.0255 20.0059 94.8974 19.1979 94.6508 18.4375C94.9967 18.5209 95.3429 18.6874 95.6689 18.9633L100.854 23.3511C101.823 24.171 103.242 24.1713 104.211 23.3514L109.401 18.9627C110.512 18.0217 111.857 18.3271 112.637 19.0084C113.008 19.3332 113.45 19.9149 113.45 20.8434V30.2042C113.45 32.0664 112.975 33.8998 112.074 35.5106C110.146 38.972 106.49 41.1219 102.532 41.1219ZM89.039 10.1808C90.008 11.0008 91.4277 11.0011 92.3967 10.1814L97.5866 5.7928C98.6979 4.85233 100.043 5.15713 100.822 5.83849C101.193 6.16322 101.636 6.74492 101.636 7.67343V17.0346C101.636 17.0895 101.632 17.1437 101.631 17.1986L99.0278 14.9954C96.6486 12.9808 93.4052 12.6401 90.7227 13.9553C88.3279 12.7793 85.4884 12.9314 83.2119 14.4119V7.67343C83.2119 6.83599 83.0837 6.02799 82.8372 5.26752C83.183 5.35093 83.5289 5.51744 83.8552 5.79341L89.039 10.1808ZM65.4169 10.1814C66.3859 11.0011 67.8062 11.0008 68.7746 10.1811L73.9602 5.79311C75.073 4.85141 76.4164 5.1556 77.1992 5.84156C77.57 6.16537 78.0131 6.74584 78.0131 7.67343V17.0346C78.0131 17.0901 78.0088 17.1447 78.0082 17.1999L75.4014 14.9951C73.0197 12.9789 69.7739 12.6395 67.0902 13.9584C67.047 13.9375 67.0059 13.9136 66.9623 13.8936C64.5276 12.7643 61.7835 12.9768 59.5858 14.4079V7.67343C59.5858 6.83722 59.4579 6.02891 59.2108 5.26783C59.557 5.35124 59.9031 5.51774 60.2294 5.79403L65.4169 10.1814ZM32.5554 7.67343C32.5554 6.21474 33.6467 5.59471 33.9815 5.43986C34.3161 5.285 35.4924 4.85233 36.6049 5.79372L41.7899 10.1814C42.7591 11.0014 44.1789 11.0017 45.1476 10.1821L50.3375 5.79341C51.4487 4.85233 52.7955 5.15713 53.5689 5.83174C53.9417 6.15924 54.3861 6.74462 54.3861 7.67374V17.0349C54.3861 17.0901 54.3818 17.1447 54.3812 17.1999L51.7765 14.996C49.4734 13.0473 46.3426 12.6251 43.6052 13.8946C40.8687 15.1641 39.1678 17.8269 39.1678 20.844V27.0749C35.2504 25.393 32.555 21.4895 32.555 17.0355L32.5554 7.67343ZM31.2537 33.9026C31.2537 32.34 31.8188 30.7736 32.9337 29.2251C34.7534 30.8031 36.9351 31.9815 39.349 32.6181C40.3888 39.5135 45.8145 44.9886 52.6836 46.1078V49.3469C49.7156 48.5478 46.9285 47.6113 44.3853 46.5359C36.04 43.0068 31.2537 38.4019 31.2537 33.9026ZM113.431 46.5359C110.887 47.6113 108.1 48.5478 105.132 49.3475V46.1005C109.94 45.3127 114.198 42.3794 116.612 38.0453C117.551 36.3674 118.171 34.5239 118.459 32.6196C120.876 31.983 123.06 30.8037 124.881 29.2245C125.996 30.7739 126.563 32.3409 126.563 33.9026C126.563 38.4019 121.777 43.0068 113.431 46.5359Z" fill="#303845"/>
</g>
<defs>
<clipPath id="clip0_11_146">
<rect width="157" height="157" fill="white" transform="translate(0.5)"/>
</clipPath>
</defs>
</svg>
