<svg width="158" height="157" viewBox="0 0 158 157" fill="none" xmlns="http://www.w3.org/2000/svg">
<g clip-path="url(#clip0_11_172)">
<path d="M70.6954 13.5118C70.5722 13.858 69.506 16.9995 69.9187 20.6409C70.2894 23.9075 72.178 29.6104 80.6643 31.1019C81.8525 31.3104 83.027 30.6695 83.4943 29.5574C83.632 29.2293 84.8285 26.249 84.4206 22.6515V22.6509C84.1493 20.2594 83.2388 18.1589 81.7148 16.408C79.8913 14.3131 77.2259 12.7894 73.7931 11.8793C72.4929 11.5343 71.1459 12.2445 70.6954 13.5118Z" fill="#91DC5A"/>
<path d="M58.9073 35.6896C58.9057 36.0569 58.9376 39.3745 60.5315 42.6745C61.9614 45.6351 65.6297 50.3926 74.1316 48.9941C75.322 48.7981 76.2186 47.8049 76.2916 46.6007C76.3131 46.2456 76.4566 43.0373 74.8823 39.7771L74.882 39.7765C73.8351 37.6091 72.2814 35.9278 70.2643 34.7791C67.8504 33.4048 64.8312 32.8479 61.2908 33.1245C59.9495 33.2291 58.9128 34.3446 58.9073 35.6896Z" fill="#91DC5A"/>
<path d="M99.6165 54.5939C99.3405 54.8362 96.8159 56.9891 93.2804 57.9525C90.1082 58.8167 84.1112 59.1711 79.5867 51.8384C78.9535 50.8118 79.1145 49.4831 79.9749 48.638C80.2285 48.3887 82.5553 46.1751 86.0483 45.2233H86.0489C88.3714 44.5907 90.6598 44.6597 92.8502 45.4278C95.471 46.3471 97.8726 48.26 99.9878 51.1126C100.789 52.1926 100.627 53.7068 99.6165 54.5939Z" fill="#91DC5A"/>
<path d="M106.448 34.2364C106.243 33.9316 104.349 31.2077 101.175 29.3771C98.3261 27.7347 92.6165 25.867 86.3764 31.8081C85.5027 32.64 85.3209 33.9656 85.9379 35.0021C86.1197 35.3078 87.8071 38.0403 90.9432 39.8488L90.9438 39.8491C93.0289 41.0515 95.2594 41.5666 97.5733 41.3808C100.342 41.1582 103.151 39.9188 105.922 37.6981C106.972 36.857 107.201 35.3517 106.448 34.2364Z" fill="#91DC5A"/>
<path d="M76.7592 20.6408C76.3459 16.9995 77.4127 13.858 77.5359 13.5118C77.5611 13.4412 77.5896 13.3732 77.6203 13.3063C76.4762 12.7298 75.2006 12.2521 73.7931 11.8789C72.4933 11.5342 71.1459 12.2441 70.6957 13.5118C70.5725 13.858 69.5063 16.9995 69.919 20.6408C70.2897 23.9075 72.1783 29.6104 80.6646 31.1019C81.747 31.292 82.8157 30.7756 83.3511 29.8422C78.3571 27.5323 77.0594 23.2874 76.7592 20.6408Z" fill="#6DC82A"/>
<path d="M67.3714 42.6742C65.7778 39.3741 65.7453 36.0566 65.7472 35.6892C65.7512 34.7681 66.2387 33.9549 66.9762 33.5001C65.2722 33.0898 63.3719 32.9617 61.2902 33.1242C59.9492 33.2287 58.9125 34.3443 58.9069 35.6892C58.9054 36.0566 58.9373 39.3741 60.5312 42.6742C61.9611 45.6348 65.6294 50.3923 74.1313 48.9937C74.3245 48.9621 74.5088 48.9072 74.6842 48.8358C70.516 47.758 68.3827 44.7679 67.3714 42.6742Z" fill="#6DC82A"/>
<path d="M86.4267 51.8381C85.7935 50.8115 85.9544 49.4828 86.8149 48.6377C87.0599 48.397 89.2401 46.329 92.5331 45.3297C90.4387 44.6621 88.2598 44.6207 86.0489 45.223L86.0483 45.2233C82.555 46.1751 80.2285 48.3887 79.975 48.638C79.1142 49.4834 78.9532 50.8118 79.5868 51.8384C84.1112 59.1711 90.1085 58.8166 93.2804 57.9525C93.3592 57.931 93.434 57.9062 93.5116 57.8838C91.1281 57.1166 88.6066 55.3712 86.4267 51.8381Z" fill="#6DC82A"/>
<path d="M97.7837 39.8491C94.6474 38.0405 92.9602 35.3077 92.7784 35.0023C92.1608 33.9659 92.343 32.6403 93.2169 31.8083C95.1426 29.9749 97.0177 28.8867 98.7741 28.3047C95.663 27.2903 91.1777 27.2379 86.3767 31.8083C85.5031 32.6403 85.3212 33.9659 85.9382 35.0023C86.12 35.308 87.8075 38.0405 90.9435 39.8491L90.9441 39.8494C93.0292 41.0517 95.2594 41.5669 97.5736 41.381C98.4218 41.313 99.2739 41.1483 100.127 40.8901C99.3288 40.635 98.5466 40.2894 97.784 39.8497C97.7843 39.8491 97.7837 39.8491 97.7837 39.8491Z" fill="#6DC82A"/>
<path d="M107.91 2.42059C107.544 2.38778 104.236 2.13603 100.812 3.44231C97.7401 4.61429 92.6867 7.86253 93.354 16.4527C93.4475 17.6554 94.3607 18.6336 95.5544 18.8093C95.9064 18.8611 99.0909 19.2781 102.473 17.9878L102.474 17.9875C104.723 17.1298 106.531 15.7254 107.847 13.8135C109.423 11.5257 110.235 8.56535 110.262 5.01415C110.273 3.66923 109.25 2.5411 107.91 2.42059Z" fill="#91DC5A"/>
<path d="M100.195 16.4537C99.5273 7.86351 104.581 4.61496 107.653 3.44329C108.19 3.23815 108.724 3.07532 109.245 2.93979C108.87 2.65339 108.412 2.46664 107.911 2.42157C107.545 2.38876 104.236 2.137 100.812 3.44329C97.7405 4.61527 92.6871 7.86351 93.3543 16.4537C93.4478 17.6564 94.361 18.6345 95.5548 18.8103C95.8654 18.8559 98.3841 19.1844 101.297 18.3736C100.676 17.9418 100.256 17.2473 100.195 16.4537Z" fill="#6DC82A"/>
<path d="M42.8967 75.1038L49.8994 149.945C50.1432 152.62 52.3863 154.669 55.0727 154.669H102.927C105.613 154.669 107.857 152.62 108.1 149.945L115.103 75.1038H42.8967Z" fill="#FF9478"/>
<path d="M115.103 75.1038H42.8967L49.8994 149.945C50.1432 152.62 52.3863 154.669 55.0727 154.669H72.305C69.6188 154.669 67.3754 152.62 67.1317 149.945L61.7241 92.1512H113.508L115.103 75.1038Z" fill="#FF6243"/>
<path d="M102.156 115.713C102.084 115.713 102.01 115.71 101.936 115.703C100.654 115.583 99.7119 114.446 99.8318 113.164L101.111 99.4869C101.232 98.2049 102.368 97.2613 103.651 97.3828C104.933 97.5027 105.875 98.6394 105.755 99.9218L104.476 113.599C104.362 114.807 103.346 115.713 102.156 115.713Z" fill="#FF6243"/>
<path d="M100.643 131.89C100.57 131.89 100.497 131.887 100.423 131.88C99.1409 131.76 98.1983 130.623 98.3182 129.341L98.8821 123.309C99.0026 122.027 100.143 121.086 101.421 121.205C102.703 121.325 103.646 122.462 103.526 123.744L102.962 129.775C102.849 130.983 101.833 131.89 100.643 131.89Z" fill="#FF6243"/>
<path d="M117.707 85.9328H40.2936C37.2155 85.9328 34.6971 83.4144 34.6971 80.3363V67.3652C34.6971 64.2871 37.2155 61.7687 40.2936 61.7687H117.707C120.785 61.7687 123.303 64.2871 123.303 67.3652V80.3363C123.303 83.4144 120.785 85.9328 117.707 85.9328Z" fill="#FFEB99"/>
<path d="M48.9914 80.3363V67.3652C48.9914 64.2871 51.5099 61.7687 54.5879 61.7687H40.2936C37.2155 61.7687 34.6971 64.2871 34.6971 67.3652V80.3363C34.6971 83.4144 37.2155 85.9328 40.2936 85.9328H54.5879C51.5096 85.9328 48.9914 83.4144 48.9914 80.3363Z" fill="#FFDA44"/>
<path d="M113.926 73.2174H85.6319C84.3437 73.2174 83.2999 72.1733 83.2999 70.8854C83.2999 69.5975 84.3437 68.5534 85.6319 68.5534H113.926C115.214 68.5534 116.258 69.5975 116.258 70.8854C116.258 72.1733 115.214 73.2174 113.926 73.2174Z" fill="#FFDA44"/>
<path d="M117.707 59.4366H96.0999C98.8649 58.2747 100.739 56.7108 101.155 56.3465C103.064 54.672 103.374 51.7626 101.861 49.7231C99.6904 46.7956 97.2124 44.7301 94.4858 43.5661C95.2006 43.6835 100.497 44.6651 107.381 39.5178C109.414 37.9975 109.802 35.0375 108.382 32.9318C107.996 32.3599 99.9038 21.0955 90.1852 26.4694C91.6494 24.3189 93.0808 22.4628 94.372 20.9158C94.6425 21.0054 99.4687 21.9164 103.305 20.1664C104.476 19.6319 105.111 18.36 104.652 17.1567C104.193 15.9532 102.845 15.3506 101.642 15.809C98.7622 16.9074 96.0107 16.5189 95.8939 16.5021C95.7767 16.4846 95.6884 16.3901 95.6792 16.2721C95.157 9.54838 98.6343 6.76869 101.644 5.62093C104.631 4.48115 107.576 4.73168 107.701 4.74302C107.831 4.75498 107.932 4.86629 107.931 4.996C107.911 7.56166 107.437 9.75107 106.52 11.5041C105.924 12.6454 106.365 14.0541 107.507 14.6509C108.648 15.2473 110.057 14.806 110.653 13.6647C111.916 11.2496 112.569 8.34512 112.595 5.03188C112.614 2.4929 110.648 0.325874 108.12 0.0980406C107.433 0.0360993 103.732 -0.402396 99.9811 1.26358C88.9491 6.16369 91.0974 17.1987 91.1655 17.4686C89.8279 19.0459 88.3395 20.9404 86.8041 23.1485C86.7885 22.9053 87.2387 10.6477 73.1295 9.46037C71.0619 9.2862 69.1144 10.7486 68.4986 12.7301C62.7804 31.1414 80.5935 33.4458 80.7612 33.4577C79.7014 35.6434 78.6724 38.0352 77.7328 40.6193C77.5307 40.0177 76.3042 35.6487 71.4176 32.7527C68.6274 31.0993 65.1137 30.4876 61.1092 30.7995C58.5776 30.9966 56.586 33.1403 56.5753 35.6799C56.5725 36.3696 56.6945 39.975 58.4317 43.6885C62.9362 53.3188 74.6609 51.2637 74.7363 51.2477C74.2077 53.849 73.7995 56.5808 73.5463 59.4369H40.2936C35.9218 59.4369 32.3654 62.9933 32.3654 67.365V80.3362C32.3654 84.708 35.9218 88.2644 40.2936 88.2644H41.7863L43.6596 108.285C43.7727 109.493 44.7889 110.4 45.9787 110.4C46.0511 110.4 46.125 110.396 46.1989 110.39C47.4809 110.27 48.4232 109.133 48.3033 107.851L46.4706 88.2644H111.53L105.778 149.733C105.643 151.217 104.417 152.337 102.927 152.337H55.0727C53.5825 152.337 52.3568 151.217 52.2213 149.727L50.2254 128.395C50.1052 127.113 48.9694 126.17 47.6864 126.29C46.404 126.41 45.4617 127.547 45.5816 128.829L47.5772 150.156C47.9323 154.058 51.1545 157 55.0724 157H102.927C106.845 157 110.067 154.058 110.422 150.162L116.214 88.2647H117.707C122.078 88.2647 125.635 84.7083 125.635 80.3365V67.3653C125.635 62.9933 122.078 59.4366 117.707 59.4366ZM73.9639 46.4589C73.9568 46.5773 73.8701 46.6736 73.7529 46.6926C72.8637 46.8392 72.0048 46.9131 71.2005 46.9131H71.1995C66.2148 46.9128 63.7887 44.0564 62.6311 41.66C61.2423 38.7847 61.2386 35.8234 61.2389 35.6996C61.2396 35.5692 61.3417 35.4595 61.4714 35.4493C61.9964 35.4083 62.5143 35.3874 63.0101 35.3874C65.4047 35.3874 67.4573 35.8645 69.1098 36.8056C70.7058 37.7142 71.9395 39.0518 72.7769 40.7806C72.7784 40.784 72.7803 40.7873 72.7818 40.791C74.1224 43.5661 73.9709 46.3421 73.9639 46.4589ZM98.1146 52.5013C98.1921 52.6058 98.1762 52.7549 98.0784 52.841C97.9845 52.9232 95.7498 54.8627 92.6671 55.7023C91.7742 55.9455 90.8782 56.0687 90.0036 56.0687C86.6416 56.0687 83.8046 54.2335 81.571 50.6139C81.5088 50.5127 81.5247 50.3842 81.6087 50.3014C81.6925 50.2193 83.6859 48.2859 86.6539 47.4748C86.6566 47.4742 86.6594 47.4736 86.6616 47.4727C88.5192 46.9667 90.3418 47.0189 92.0784 47.6279C94.2509 48.3899 96.2821 50.0298 98.1146 52.5013ZM81.2349 44.789C82.1628 41.8934 83.2229 39.2302 84.3345 36.8136C86.3568 40.5715 90.8052 42.419 91.3295 42.644C88.5345 42.0222 83.8089 42.4962 81.2349 44.789ZM100.01 31.3971C102.776 32.9919 104.446 35.4377 104.515 35.5404C104.588 35.6487 104.566 35.7968 104.464 35.8786C102.063 37.8025 99.6824 38.8717 97.3866 39.0563C95.555 39.2054 93.7774 38.7911 92.1081 37.8289C89.436 36.288 88.0016 33.91 87.9412 33.8088C87.8804 33.7067 87.8979 33.5785 87.9841 33.497C90.3679 31.2272 92.8419 30.0767 95.337 30.0767C97.3066 30.0764 98.9655 30.7949 100.01 31.3971ZM72.2363 20.378C71.8757 17.1997 72.8514 14.4111 72.8931 14.2924C72.9345 14.1762 73.0418 14.1238 73.1298 14.1238C73.1513 14.1238 73.1731 14.1265 73.1958 14.1326C76.1693 14.921 78.4439 16.2015 79.956 17.9387C81.1604 19.3222 81.8823 20.99 82.1018 22.8964C82.1024 22.9022 82.103 22.9084 82.1037 22.9139C82.4511 25.9775 81.3901 28.5453 81.3447 28.6536C81.2996 28.7609 81.196 28.8087 81.1135 28.8087C81.0988 28.8087 81.0838 28.8075 81.0684 28.8048C74.426 27.6377 72.599 23.5781 72.2363 20.378ZM78.8202 54.8339C80.5597 57.1076 82.4462 58.5491 84.2842 59.4366H78.2286C78.378 57.8614 78.577 56.3263 78.8202 54.8339ZM120.971 80.3362C120.971 82.1365 119.507 83.6007 117.707 83.6007H40.2936C38.4933 83.6007 37.0291 82.1362 37.0291 80.3362V67.365C37.0291 65.5648 38.4936 64.1006 40.2936 64.1006H117.707C119.507 64.1006 120.971 65.5651 120.971 67.365V80.3362Z" fill="#303845"/>
<path d="M47.4009 123.24C48.683 123.12 49.6253 121.984 49.5054 120.701L49.0022 115.325C48.882 114.043 47.7462 113.099 46.4629 113.221C45.1808 113.341 44.2385 114.477 44.3584 115.76L44.8616 121.136C44.9748 122.344 45.991 123.251 47.1807 123.251C47.2534 123.251 47.3273 123.247 47.4009 123.24Z" fill="#303845"/>
</g>
<defs>
<clipPath id="clip0_11_172">
<rect width="157" height="157" fill="white" transform="translate(0.5)"/>
</clipPath>
</defs>
</svg>
