<svg width="158" height="157" viewBox="0 0 158 157" fill="none" xmlns="http://www.w3.org/2000/svg">
<g clip-path="url(#clip0_11_95)">
<path d="M79.0008 15.647C82.6393 15.647 85.589 12.6973 85.589 9.05877C85.589 5.42021 82.6393 2.47058 79.0008 2.47058C75.3622 2.47058 72.4126 5.42021 72.4126 9.05877C72.4126 12.6973 75.3622 15.647 79.0008 15.647Z" fill="#CC809A"/>
<path d="M111.991 154.53H46.0093L32.8332 99.6112H125.167L111.991 154.53Z" fill="#FFB969"/>
<path d="M78.9999 99.6112C76.2711 99.6112 74.0587 97.3987 74.0587 94.6699V50.0389C74.0587 47.3101 76.2711 45.0977 78.9999 45.0977C81.729 45.0977 83.9411 47.3101 83.9411 50.0389V94.6696C83.9414 97.3991 81.7293 99.6112 78.9999 99.6112Z" fill="#94D77F"/>
<path d="M66.4113 6.57623C77.0024 6.57623 85.588 15.1619 85.588 25.753V43.4511C74.997 43.4511 66.4113 34.8654 66.4113 24.2743V6.57623Z" fill="#D988A5"/>
<path d="M91.589 6.57623C80.9979 6.57623 72.4123 15.1619 72.4123 25.753V43.4511C83.0034 43.4511 91.589 34.8654 91.589 24.2743V6.57623Z" fill="#E690AF"/>
<path opacity="0.1" d="M79.0005 59.9211C80.6849 59.9211 82.3355 59.7754 83.9417 59.4991V50.0389C83.9417 47.3101 81.7293 45.0977 79.0005 45.0977C76.2717 45.0977 74.0593 47.3101 74.0593 50.0389V59.4991C75.6655 59.7757 77.3161 59.9211 79.0005 59.9211Z" fill="#303845"/>
<path d="M79.0005 32.3412C79.0005 21.7501 70.4148 13.1644 59.8237 13.1644V30.8625C59.8237 41.4536 68.4094 50.0393 79.0005 50.0393L87.5134 41.9807V32.3415L79.0005 32.3412Z" fill="#F298B8"/>
<path d="M98.1768 13.1644C87.5858 13.1644 79.0001 21.7501 79.0001 32.3412V50.0393C89.5912 50.0393 98.1768 41.4536 98.1768 30.8625V13.1644Z" fill="#FFA0C1"/>
<path d="M45.4211 59.3688C49.0596 59.3688 52.0093 56.4192 52.0093 52.7806C52.0093 49.1421 49.0596 46.1924 45.4211 46.1924C41.7825 46.1924 38.8329 49.1421 38.8329 52.7806C38.8329 56.4192 41.7825 59.3688 45.4211 59.3688Z" fill="#4DA3CC"/>
<path d="M32.8332 50.2968C43.4243 50.2968 52.0099 58.8825 52.0099 69.4735V87.1716C41.4188 87.1716 32.8332 78.586 32.8332 67.9949V50.2968Z" fill="#52ADD9"/>
<path d="M58.0102 50.2968C47.4191 50.2968 38.8335 58.8825 38.8335 69.4735V87.1716C49.4246 87.1716 58.0102 78.586 58.0102 67.9949V50.2968Z" fill="#57B8E6"/>
<path d="M45.4217 76.0617C45.4217 65.4707 36.8361 56.885 26.245 56.885V74.5831C26.245 85.1742 34.8306 93.7598 45.4217 93.7598L53.9347 85.7013V76.062L45.4217 76.0617Z" fill="#5CC2F2"/>
<path d="M64.5984 56.885C54.0073 56.885 45.4217 65.4707 45.4217 76.0617V93.7598C56.0128 93.7598 64.5984 85.1742 64.5984 74.5831V56.885Z" fill="#61CCFF"/>
<path d="M112.58 59.3688C116.219 59.3688 119.168 56.4192 119.168 52.7806C119.168 49.1421 116.219 46.1924 112.58 46.1924C108.942 46.1924 105.992 49.1421 105.992 52.7806C105.992 56.4192 108.942 59.3688 112.58 59.3688Z" fill="#8779B3"/>
<path d="M99.9901 50.2968C110.581 50.2968 119.167 58.8825 119.167 69.4735V87.1716C108.576 87.1716 99.9901 78.586 99.9901 67.9949V50.2968Z" fill="#9181BF"/>
<path d="M125.167 50.2968C114.576 50.2968 105.99 58.8825 105.99 69.4735V87.1716C116.581 87.1716 125.167 78.586 125.167 67.9949V50.2968Z" fill="#9B8ACC"/>
<path d="M112.579 76.0617C112.579 65.4707 103.993 56.885 93.4019 56.885V74.5831C93.4019 85.1742 101.988 93.7598 112.579 93.7598L121.092 85.7013V76.062L112.579 76.0617Z" fill="#A593D9"/>
<path d="M131.755 56.885C121.164 56.885 112.579 65.4707 112.579 76.0617V93.7598C123.17 93.7598 131.755 85.1742 131.755 74.5831V56.885Z" fill="#AF9CE6"/>
<path opacity="0.1" d="M36.8621 116.405H121.138L125.167 99.6112H32.8332L36.8621 116.405Z" fill="#303845"/>
<path d="M133.277 90.4647H24.7244V106.522H133.277V90.4647Z" fill="#FFA561"/>
<path d="M133.277 87.995H129.562C131.229 85.8856 132.505 83.4742 133.292 80.8828C133.689 79.5774 132.952 78.1975 131.646 77.8007C130.341 77.4039 128.961 78.1408 128.564 79.4461C127.529 82.8541 125.402 85.8638 122.54 87.995H115.049V76.0617C115.049 69.2966 119.367 63.0506 125.627 60.5331C125.927 60.4126 129.284 59.4593 129.284 59.5381V70.2825C129.284 71.6467 130.39 72.7531 131.755 72.7531C133.12 72.7531 134.226 71.647 134.226 70.2825V56.885C134.226 55.5208 133.12 54.4144 131.755 54.4144C130.347 54.4144 128.971 54.5539 127.637 54.8121V50.2968C127.637 48.9326 126.531 47.8262 125.167 47.8262C123.569 47.8262 121.998 48.0084 120.476 48.3497C118.913 45.5378 115.945 43.7203 112.578 43.7203C109.214 43.7203 106.247 45.5353 104.683 48.3438C103.152 48.0035 101.58 47.8259 99.9894 47.8259C98.6252 47.8259 97.5188 48.932 97.5188 50.2965V54.8118C96.1849 54.5539 94.8093 54.4141 93.4012 54.4141C92.037 54.4141 90.9306 55.5202 90.9306 56.8847V74.5828C90.9306 79.517 92.607 84.223 95.5854 87.995H86.411V51.202C94.7081 48.169 100.647 40.1964 100.647 30.8625V13.1644C100.647 11.8002 99.5405 10.6938 98.1759 10.6938C96.7679 10.6938 95.3923 10.8333 94.0584 11.0918V6.57623C94.0584 5.21198 92.9523 4.10562 91.5878 4.10562C89.9899 4.10562 88.4192 4.28776 86.8974 4.62936C85.335 1.81777 82.3658 0 78.9998 0C75.636 0 72.6686 1.81532 71.1047 4.62384C69.574 4.28316 68.0012 4.10562 66.4113 4.10562C65.047 4.10562 63.9407 5.21167 63.9407 6.57623V11.0915C62.6068 10.8336 61.2312 10.6938 59.8231 10.6938C58.4589 10.6938 57.3525 11.7999 57.3525 13.1644V23.3952C57.3525 24.7594 58.4585 25.8658 59.8231 25.8658C61.1877 25.8658 62.2937 24.7597 62.2937 23.3952V15.8172C63.5258 16.0005 64.7134 16.3204 65.8431 16.7582C65.9041 16.7819 65.9645 16.8067 66.0252 16.8309C72.1823 19.2939 76.4323 25.4751 76.5274 32.1023C76.5283 32.182 76.5289 32.2617 76.5289 32.3414C76.5289 32.3414 76.5289 46.0652 76.5289 47.289C76.5289 47.289 76.2174 47.2568 76.2174 47.258C75.7976 47.1476 75.2331 47.1396 74.8755 47.0483C68.3677 45.386 63.3007 39.8861 62.4311 32.9691C62.2609 31.6153 61.0248 30.6561 59.6716 30.826C58.3178 30.9962 57.3586 32.232 57.5285 33.5855C58.5619 41.8038 64.1664 48.4778 71.5883 51.1938V87.9953H62.4139C65.3923 84.2233 67.0687 79.5176 67.0687 74.5831V56.885C67.0687 55.5208 65.9627 54.4144 64.5981 54.4144C63.19 54.4144 61.8144 54.5539 60.4805 54.8121V50.2968C60.4805 48.9326 59.3745 47.8262 58.0099 47.8262C56.412 47.8262 54.8414 48.0084 53.3195 48.3497C51.7566 45.5378 48.7877 43.7203 45.4211 43.7203C42.0575 43.7203 39.0902 45.5353 37.5263 48.3438C35.9955 48.0035 34.4228 47.8259 32.8325 47.8259C31.4683 47.8259 30.3619 48.932 30.3619 50.2965V54.8118C29.028 54.5539 27.6525 54.4141 26.2444 54.4141C24.8801 54.4141 23.7737 55.5202 23.7737 56.8847V74.5828C23.7737 79.517 25.4502 84.223 28.4286 87.995H24.7231C23.3589 87.995 22.2525 89.101 22.2525 90.4656V106.523C22.2525 107.887 23.3586 108.993 24.7231 108.993H32.5431L43.6064 155.106C43.8729 156.217 44.8664 157 46.0086 157H111.99C113.133 157 114.126 156.217 114.393 155.106L125.456 108.993H133.276C134.64 108.993 135.747 107.887 135.747 106.523V90.4653C135.748 89.1013 134.641 87.995 133.277 87.995ZM122.697 52.9533V56.3962C119.905 57.6844 117.408 59.5859 115.397 61.9078C114.31 63.1629 113.364 64.5422 112.585 66.0235C111.892 64.7038 111.059 63.4511 110.094 62.285C109.971 62.1356 111.009 60.6205 111.125 60.4411C113.699 56.4643 117.975 53.6674 122.697 52.9533ZM112.579 48.6618C113.791 48.6618 114.892 49.18 115.65 50.0313C114.579 50.5559 113.554 51.1686 112.581 51.8668C111.607 51.1689 110.581 50.5553 109.508 50.03C110.266 49.1791 111.367 48.6618 112.579 48.6618ZM102.461 52.9514C103.547 53.1142 104.611 53.3856 105.64 53.7554C106.71 54.1415 107.738 54.6337 108.708 55.2285C108.744 55.2506 108.781 55.2724 108.817 55.2948C107.937 56.3094 107.154 57.4081 106.475 58.5663C106.442 58.6227 106.406 58.677 106.374 58.7338C105.743 58.2615 105.085 57.8249 104.406 57.425C104.225 57.3183 102.452 56.4907 102.457 56.3953C102.51 55.2571 102.461 54.0946 102.461 52.9514ZM95.8725 59.5378C98.31 59.9008 100.679 60.826 102.722 62.204C102.744 62.2187 102.766 62.2347 102.788 62.2494C107.284 65.302 110.108 70.621 110.108 76.0617V87.995H102.617C98.3805 84.8442 95.8725 79.884 95.8725 74.5828V59.5378ZM95.7066 15.8175V30.8628C95.7066 38.6255 90.3824 45.1652 83.1953 47.0317C82.6271 47.1786 82.0509 47.2917 81.4707 47.3773C81.4707 47.3773 81.4707 32.3427 81.4707 32.3414C81.4707 28.3432 82.9868 24.3335 85.6267 21.3287C88.1758 18.4267 91.712 16.4121 95.7066 15.8175ZM76.5295 52.3685C76.5884 52.3755 76.6479 52.3774 76.7068 52.3835C77.4682 52.4645 78.2341 52.5092 79.0001 52.5092C79.7925 52.5092 80.5888 52.4623 81.376 52.3762C81.4076 52.3728 81.4392 52.3716 81.4704 52.3682V87.9947H76.5292L76.5295 52.3685ZM74.1736 12.9065C73.7146 13.5305 73.2886 14.1785 72.8964 14.8463C72.8633 14.9034 72.8265 14.9586 72.7937 15.0159C71.581 14.1067 70.2581 13.3141 68.8819 12.6769V9.23051C69.9699 9.39365 71.0351 9.66564 72.0648 10.037C73.1335 10.4227 74.1629 10.914 75.1303 11.5098C75.1659 11.5315 75.2018 11.553 75.237 11.5751C74.8651 12.0044 74.5103 12.449 74.1736 12.9065ZM78.9998 4.94122C80.2117 4.94122 81.3122 5.45883 82.0699 6.30914C80.9991 6.83411 79.974 7.4477 79.0004 8.14623C78.0272 7.44862 77.0018 6.83534 75.9291 6.30976C76.6868 5.45883 77.7877 4.94122 78.9998 4.94122ZM76.5157 18.5644C76.5626 18.4669 76.609 18.3693 76.6574 18.2728C77.3688 16.8576 78.2875 15.5338 79.3699 14.3769C79.3942 14.3508 79.419 14.3254 79.4438 14.2996C81.9914 11.611 85.397 9.79565 89.1181 9.23266V12.6756C86.3356 13.9595 83.8212 15.8668 81.8194 18.1863C80.7317 19.4414 79.7858 20.8212 79.0066 22.3029C78.3139 20.9832 77.4807 19.7305 76.5157 18.5644ZM62.1278 59.5378V74.5828C62.1278 79.884 59.6198 84.8442 55.3829 87.995H47.892V76.0617C47.892 69.2957 52.2049 63.05 58.4671 60.5331C58.7673 60.4126 62.1278 59.4593 62.1278 59.5378ZM55.5396 52.9533V56.3962C52.7483 57.6841 50.2473 59.5816 48.24 61.9078C47.153 63.1629 46.2073 64.5422 45.4281 66.0235C44.7351 64.7038 43.9023 63.4511 42.9373 62.285C42.8198 62.143 43.8121 60.6843 43.9235 60.5101C46.154 57.0196 49.6727 54.4343 53.6694 53.3476C54.2845 53.1805 54.9095 53.0483 55.5396 52.9533ZM45.4217 48.6618C46.6342 48.6618 47.735 49.18 48.493 50.0313C47.4222 50.5559 46.3974 51.1686 45.4238 51.8668C44.4506 51.1689 43.4245 50.5553 42.3516 50.03C43.1093 49.1791 44.2099 48.6618 45.4217 48.6618ZM35.3038 52.9514C37.5128 53.2817 39.6479 54.0605 41.5513 55.2285C41.5875 55.2506 41.6239 55.2724 41.6601 55.2948C40.7807 56.3094 39.9975 57.4081 39.3186 58.5663C39.2858 58.6227 39.2493 58.677 39.2171 58.7338C38.0016 57.8239 36.6821 57.0347 35.3038 56.3971V52.9514ZM28.7156 59.5378C34.0984 60.3393 38.8715 63.8602 41.2612 68.7444C41.2661 68.7542 41.271 68.7646 41.2759 68.7744C42.3761 71.0291 42.9511 73.5531 42.9511 76.0617V87.995H35.4602C31.2233 84.8442 28.7153 79.884 28.7153 74.5828L28.7156 59.5378ZM130.807 104.052H59.0458C57.6815 104.052 56.5752 105.158 56.5752 106.523C56.5752 107.887 57.6812 108.993 59.0458 108.993H120.376L110.043 152.059H47.957L37.6244 108.993H49.1636C50.5279 108.993 51.6342 107.887 51.6342 106.523C51.6342 105.158 50.5282 104.052 49.1636 104.052H27.1937V92.9362H130.806V104.052H130.807Z" fill="#303845"/>
</g>
<defs>
<clipPath id="clip0_11_95">
<rect width="157" height="157" fill="white" transform="translate(0.5)"/>
</clipPath>
</defs>
</svg>
