<svg width="518" height="728" viewBox="0 0 518 728" fill="none" xmlns="http://www.w3.org/2000/svg">
<path d="M520.064 18.415C432.351 5.2726 342.71 18.1918 262.277 55.5676C181.845 92.9433 114.168 153.128 67.6533 228.644C21.1389 304.16 -2.16208 391.679 0.645433 480.326C3.45294 568.974 32.2452 654.843 83.4449 727.264L86.7709 724.913C36.032 653.143 7.49888 568.047 4.71663 480.197C1.93439 392.348 25.0257 305.617 71.1215 230.78C117.217 155.944 184.286 96.3008 263.994 59.2615C343.702 22.2221 432.537 9.41915 519.46 22.4433L520.064 18.415Z" fill="#A9BFE4"/>
<circle cx="198.5" cy="94.5" r="18.5" fill="#FFC2C7"/>
<ellipse cx="440" cy="18.5" rx="18" ry="18.5" fill="#FFC2C7"/>
<circle cx="29.5" cy="309.5" r="18.5" fill="#FFC2C7"/>
<circle cx="18.5" cy="592.5" r="18.5" fill="#FFC2C7"/>
</svg>
