<svg width="152" height="151" viewBox="0 0 152 151" fill="none" xmlns="http://www.w3.org/2000/svg">
<path d="M144.688 41.1562H7.3125V139.281H144.688V41.1562Z" fill="#CCCCCC"/>
<path d="M137.328 41.1562H7.3125V139.281H137.328V41.1562Z" fill="#F2F2F2"/>
<path d="M144.688 124.562H61.2812V139.281H144.688V124.562Z" fill="#98856E"/>
<path d="M137.328 124.562H61.2812V139.281H137.328V124.562Z" fill="#CBB292"/>
<path d="M144.688 114.75H61.2812V124.562H144.688V114.75Z" fill="#5F443E"/>
<path d="M137.328 114.75H61.2812V124.562H137.328V114.75Z" fill="#7F5B53"/>
<path d="M144.688 65.6875H61.2812V114.75H144.688V65.6875Z" fill="#849EB4"/>
<path d="M137.328 65.6875H61.2812V114.75H137.328V65.6875Z" fill="#B0D3F0"/>
<path d="M71.0938 85.3125L78.4531 92.6719L85.8125 85.3125V95.125C85.8125 97.0768 85.0371 98.9487 83.657 100.329C82.2768 101.709 80.405 102.484 78.4531 102.484C76.5013 102.484 74.6294 101.709 73.2493 100.329C71.8691 98.9487 71.0938 97.0768 71.0938 95.125V85.3125Z" fill="#E64C3C"/>
<path d="M95.625 85.3125L102.984 92.6719L110.344 85.3125V95.125C110.344 97.0768 109.568 98.9487 108.188 100.329C106.808 101.709 104.936 102.484 102.984 102.484C101.033 102.484 99.1607 101.709 97.7805 100.329C96.4004 98.9487 95.625 97.0768 95.625 95.125V85.3125Z" fill="#F0C419"/>
<path d="M120.156 85.3125L127.516 92.6719L134.875 85.3125V95.125C134.875 97.0768 134.1 98.9487 132.719 100.329C131.339 101.709 129.467 102.484 127.516 102.484C125.564 102.484 123.692 101.709 122.312 100.329C120.932 98.9487 120.156 97.0768 120.156 95.125V85.3125Z" fill="#E64C3C"/>
<path d="M51.4688 70.5938H17.125V80.4062H51.4688V70.5938Z" fill="#98856E"/>
<path d="M44.1094 70.5938H17.125V80.4062H44.1094V70.5938Z" fill="#CBB292"/>
<path d="M17.125 139.281V90.2188H51.4688V139.281" fill="#98856E"/>
<path d="M44.1094 90.2188H17.125V139.281H44.1094V90.2188Z" fill="#CBB292"/>
<path d="M149.594 139.281H2.40625V149.094H149.594V139.281Z" fill="#5F443E"/>
<path d="M142.234 139.281H2.40625V149.094H142.234V139.281Z" fill="#7F5B53"/>
<path d="M149.594 16.625H2.40625V41.1562H149.594V16.625Z" fill="#559264"/>
<path d="M142.234 16.625H2.40625V41.1562H142.234V16.625Z" fill="#71C285"/>
<path d="M76 55.875C90.9031 55.875 102.984 43.7937 102.984 28.8906C102.984 13.9876 90.9031 1.90625 76 1.90625C61.0969 1.90625 49.0156 13.9876 49.0156 28.8906C49.0156 43.7937 61.0969 55.875 76 55.875Z" fill="#849EB4"/>
<path d="M72.3203 55.6051C85.1911 55.6051 95.625 43.6446 95.625 28.8906C95.625 14.1366 85.1911 2.17609 72.3203 2.17609C59.4495 2.17609 49.0156 14.1366 49.0156 28.8906C49.0156 43.6446 59.4495 55.6051 72.3203 55.6051Z" fill="#B0D3F0"/>
<path d="M61.2812 26.4375V16.625L68.6406 23.9844L76 16.625L83.3594 23.9844L90.7188 16.625V26.4375C90.7188 30.3412 89.168 34.0849 86.4077 36.8452C83.6474 39.6055 79.9037 41.1562 76 41.1562C72.0963 41.1562 68.3526 39.6055 65.5923 36.8452C62.832 34.0849 61.2812 30.3412 61.2812 26.4375Z" fill="#AD392D"/>
<path d="M76 26.4375L68.6406 33.7969L61.2812 26.4375C61.2812 30.3412 62.832 34.0849 65.5923 36.8452C68.3526 39.6055 72.0963 41.1562 76 41.1562C79.9037 41.1562 83.6474 39.6055 86.4077 36.8452C89.168 34.0849 90.7188 30.3412 90.7188 26.4375L83.3594 33.7969L76 26.4375Z" fill="#E64C3C"/>
<path d="M144.688 41.1562V139.281" stroke="#303845" stroke-width="3" stroke-linejoin="round"/>
<path d="M7.3125 139.281V41.1562" stroke="#303845" stroke-width="3" stroke-linejoin="round"/>
<path d="M149.594 139.281H2.40625V149.094H149.594V139.281Z" stroke="#303845" stroke-width="3" stroke-linejoin="round"/>
<path d="M100.041 16.625H149.594V41.1562H100.041" stroke="#303845" stroke-width="3" stroke-linejoin="round"/>
<path d="M51.9594 41.1562H2.40625V16.625H51.9594" stroke="#303845" stroke-width="3" stroke-linejoin="round"/>
<path d="M76 55.875C90.9031 55.875 102.984 43.7937 102.984 28.8906C102.984 13.9876 90.9031 1.90625 76 1.90625C61.0969 1.90625 49.0156 13.9876 49.0156 28.8906C49.0156 43.7937 61.0969 55.875 76 55.875Z" stroke="#303845" stroke-width="3" stroke-linejoin="round"/>
<path d="M61.2812 26.4375V16.625L68.6406 23.9844L76 16.625L83.3594 23.9844L90.7188 16.625V26.4375C90.7187 30.3412 89.168 34.0849 86.4077 36.8452C83.6474 39.6055 79.9037 41.1562 76 41.1562C72.0963 41.1562 68.3526 39.6055 65.5923 36.8452C62.832 34.0849 61.2812 30.3412 61.2812 26.4375Z" stroke="#303845" stroke-width="3" stroke-linejoin="round"/>
<path d="M76 41.1562V55.875" stroke="#303845" stroke-width="3" stroke-linejoin="round"/>
<path d="M61.2812 139.281V114.75H144.688" stroke="#303845" stroke-width="3" stroke-linejoin="round"/>
<path d="M120.156 85.3125L127.516 92.6719L134.875 85.3125V95.125C134.875 97.0768 134.1 98.9487 132.719 100.329C131.339 101.709 129.467 102.484 127.516 102.484C125.564 102.484 123.692 101.709 122.312 100.329C120.932 98.9487 120.156 97.0768 120.156 95.125V85.3125Z" stroke="#303845" stroke-width="3" stroke-linejoin="round"/>
<path d="M127.516 102.484V114.75" stroke="#303845" stroke-width="3" stroke-linejoin="round"/>
<path d="M95.625 85.3125L102.984 92.6719L110.344 85.3125V95.125C110.344 97.0768 109.568 98.9487 108.188 100.329C106.808 101.709 104.936 102.484 102.984 102.484C101.033 102.484 99.1607 101.709 97.7805 100.329C96.4004 98.9487 95.625 97.0768 95.625 95.125V85.3125Z" stroke="#303845" stroke-width="3" stroke-linejoin="round"/>
<path d="M102.984 102.484V114.75" stroke="#303845" stroke-width="3" stroke-linejoin="round"/>
<path d="M71.0938 85.3125L78.4531 92.6719L85.8125 85.3125V95.125C85.8125 97.0768 85.0371 98.9487 83.657 100.329C82.2768 101.709 80.405 102.484 78.4531 102.484C76.5013 102.484 74.6294 101.709 73.2493 100.329C71.8691 98.9487 71.0938 97.0768 71.0938 95.125V85.3125Z" stroke="#303845" stroke-width="3" stroke-linejoin="round"/>
<path d="M78.4531 102.484V114.75" stroke="#303845" stroke-width="3" stroke-linejoin="round"/>
<path d="M61.2812 114.75V65.6875H144.688" stroke="#303845" stroke-width="3" stroke-linejoin="round"/>
<path d="M61.2812 124.562H144.688" stroke="#303845" stroke-width="3" stroke-linejoin="round"/>
<path d="M17.125 139.281V90.2188H51.4688V139.281" stroke="#303845" stroke-width="3" stroke-linejoin="round"/>
<path d="M51.4688 70.5938H17.125V80.4062H51.4688V70.5938Z" stroke="#303845" stroke-width="3" stroke-linejoin="round"/>
<path d="M41.6562 107.391V122.109" stroke="#303845" stroke-width="3" stroke-linejoin="round"/>
</svg>
